<svg width="84" height="80" viewBox="0 0 84 80" fill="none" xmlns="http://www.w3.org/2000/svg">
<path d="M42 62C59.1208 62 73 48.1208 73 31C73 13.8792 59.1208 0 42 0C24.8792 0 11 13.8792 11 31C11 48.1208 24.8792 62 42 62Z" fill="#29B8CE"/>
<path d="M84 64.8924L50.2857 11L0 80L84 64.8924ZM82.6667 63.9402L47.1746 48.2613L50.4762 12.5235L82.6667 63.9402ZM49.8413 12.6504L46.5397 48.2613L2.03175 78.2861L49.8413 12.6504ZM2.09524 78.9844L46.8571 48.8326L82.4127 64.5115L2.09524 78.9844Z" fill="#262626"/>
</svg>
