<svg width="75" height="79" viewBox="0 0 75 79" fill="none" xmlns="http://www.w3.org/2000/svg">
<path d="M55.3249 7.5027C55.0394 7.27361 54.754 7.04452 54.4685 6.81543L6.90967 54.5806C7.13804 54.8669 7.36641 55.1533 7.59479 55.4397L55.3249 7.5027Z" fill="#29B8CE"/>
<path d="M43.7353 1.3744C43.3356 1.25985 42.9359 1.14531 42.5363 1.03076L1.14355 42.5532C1.25774 42.9541 1.37193 43.355 1.48612 43.7559L43.7353 1.3744Z" fill="#29B8CE"/>
<path d="M51.8422 5.04001C51.4997 4.86819 51.2142 4.6391 50.8716 4.46729L4.56885 50.9724C4.74013 51.3161 4.91141 51.6024 5.13978 51.9461L51.8422 5.04001Z" fill="#29B8CE"/>
<path d="M48.0172 2.9782C47.6747 2.80638 47.3321 2.69184 46.9324 2.52002L2.62793 46.9634C2.79921 47.307 2.9134 47.6506 3.08468 48.0515L48.0172 2.9782Z" fill="#29B8CE"/>
<path d="M38.8823 0.343692C38.4255 0.28642 37.9688 0.229147 37.512 0.171875L0.287109 37.5134C0.344203 37.9716 0.401298 38.4298 0.458391 38.888L38.8823 0.343692Z" fill="#29B8CE"/>
<path d="M58.0656 9.96536C57.9514 9.85081 57.8372 9.73627 57.666 9.56445L9.65039 57.7305C9.76458 57.8451 9.87876 57.9596 10.05 58.1314C10.1642 58.246 10.2784 58.3605 10.4497 58.5323L58.4653 10.3663C58.294 10.1944 58.1798 10.0799 58.0656 9.96536Z" fill="#29B8CE"/>
<path d="M33.287 0C32.7732 0 32.2022 0.0572724 31.6884 0.0572724L0.172811 31.6716C0.115717 32.1871 0.115723 32.7598 0.115723 33.2752L33.287 0Z" fill="#29B8CE"/>
<path d="M0.915039 26.5744L26.55 0.859131C25.8649 1.03095 25.1798 1.20277 24.4946 1.37458L1.42888 24.5126C1.2576 25.1999 1.08632 25.8872 0.915039 26.5744Z" fill="#29B8CE"/>
<path d="M67.8856 36.368C67.9427 35.8526 67.9427 35.2799 67.9427 34.7644L34.7144 68.0969C35.2282 68.0969 35.7991 68.0396 36.313 68.0396L67.8856 36.368Z" fill="#29B8CE"/>
<path d="M67.8285 30.5835C67.7714 30.1253 67.7143 29.6672 67.6572 29.209L29.1763 67.7533C29.633 67.8106 30.0898 67.8678 30.5465 67.9251L67.8285 30.5835Z" fill="#29B8CE"/>
<path d="M16.787 4.69629C14.3891 6.1281 12.1053 7.90354 10.05 9.96535C7.99459 12.0271 6.2247 14.318 4.79736 16.7235L16.787 4.69629Z" fill="#29B8CE"/>
<path d="M66.6294 43.5843C66.8007 42.897 66.972 42.2097 67.1432 41.5225L41.5083 67.2377C42.1934 67.0659 42.8785 66.8941 43.5637 66.7223L66.6294 43.5843Z" fill="#29B8CE"/>
<path d="M51.2715 63.4005C53.6694 61.9687 55.9531 60.1932 58.0085 58.1314C60.0639 56.0696 61.8338 53.7787 63.2611 51.3733L51.2715 63.4005Z" fill="#29B8CE"/>
<path d="M63.4896 17.1245C63.3184 16.7809 63.1471 16.4945 62.9187 16.1509L16.1592 63.0569C16.5017 63.2288 16.7872 63.4578 17.1298 63.6297L63.4896 17.1245Z" fill="#29B8CE"/>
<path d="M61.1486 13.5163C60.9202 13.23 60.6919 12.9436 60.4635 12.6572L12.7334 60.5369C13.0189 60.766 13.3043 60.9951 13.5898 61.2242L61.1486 13.5163Z" fill="#29B8CE"/>
<path d="M66.9149 25.5435C66.8007 25.1426 66.6866 24.7417 66.5724 24.3408L24.3232 66.7224C24.7229 66.8369 25.1226 66.9514 25.5222 67.066L66.9149 25.5435Z" fill="#29B8CE"/>
<path d="M65.4308 21.0762C65.2595 20.7326 65.1453 20.3889 64.974 19.988L20.0415 65.1186C20.3841 65.2905 20.7266 65.405 21.1263 65.5768L65.4308 21.0762Z" fill="#29B8CE"/>
<path d="M75 70.4986H24.5015V20H75V70.4986ZM25.3516 69.6484H74.1499V20.8501H25.3516V69.6484Z" fill="#262626"/>
<path d="M66.4986 79H16V28.5015H66.4986V79ZM16.8501 78.1499H65.6484V29.3516H16.8501V78.1499Z" fill="#262626"/>
</svg>
