<svg width="75" height="107" viewBox="0 0 75 107" fill="none" xmlns="http://www.w3.org/2000/svg">
<g clip-path="url(#clip0_29_1249)">
<path d="M0 63L33.5178 0L67 63H0Z" fill="#29B8CE"/>
<path d="M20.4691 16H20.1934V79.3578H20.4691V16Z" fill="#262626"/>
<path d="M29.8045 16H29.5288V79.3578H29.8045V16Z" fill="#262626"/>
<path d="M39.1405 16H38.8647V79.3578H39.1405V16Z" fill="#262626"/>
<path d="M48.515 16H48.2393V79.3578H48.515V16Z" fill="#262626"/>
<path d="M57.8509 16H57.5752V79.3578H57.8509V16Z" fill="#262626"/>
<path d="M67.2259 16H66.9502V79.3578H67.2259V16Z" fill="#262626"/>
<path d="M75.4191 24.1853H12V24.4608H75.4191V24.1853Z" fill="#262626"/>
<path d="M75.4191 33.512H12V33.7874H75.4191V33.512Z" fill="#262626"/>
<path d="M75.4191 42.8779H12V43.1534H75.4191V42.8779Z" fill="#262626"/>
<path d="M75.4191 52.2043H12V52.4798H75.4191V52.2043Z" fill="#262626"/>
<path d="M75.4191 61.531H12V61.8065H75.4191V61.531Z" fill="#262626"/>
<path d="M75.4191 70.897H12V71.1724H75.4191V70.897Z" fill="#262626"/>
<path d="M38.5 34C33.2828 34 29 38.2828 29 43.5C29 48.7172 33.2828 53 38.5 53C43.7172 53 48 48.7172 48 43.5C48 38.2049 43.7172 34 38.5 34ZM38.5 51.3647C34.1393 51.3647 30.5574 47.7828 30.5574 43.4221C30.5574 39.0615 34.1393 35.4795 38.5 35.4795C42.8607 35.4795 46.4426 39.0615 46.4426 43.4221C46.4426 47.7828 42.8607 51.3647 38.5 51.3647Z" fill="#F2F2F2"/>
</g>
<defs>
<clipPath id="clip0_29_1249">
<rect width="75" height="107" fill="white"/>
</clipPath>
</defs>
</svg>
