<svg width="69" height="98" viewBox="0 0 69 98" fill="none" xmlns="http://www.w3.org/2000/svg">
<path d="M63 0H0V63.2908H63V0Z" fill="#29B8CE"/>
<path d="M69 55.5686V71.1467H53.376V55.5686H69ZM68.3034 70.3529V56.2632H54.1721V70.3529H68.3034Z" fill="#262626"/>
<path d="M54.1738 40.7847V56.3628H38.5498V40.7847H54.1738ZM53.4772 55.569V41.4792H39.3459V55.569H53.4772Z" fill="#262626"/>
<path d="M54.1738 25.9011V41.4792H38.5498V25.9011H54.1738ZM53.4772 40.7847V26.6949H39.3459V40.7847H53.4772Z" fill="#262626"/>
<path d="M39.3447 40.7847V56.3628H23.7207V40.7847H39.3447ZM38.5486 55.569V41.4792H24.5168V55.569H38.5486Z" fill="#262626"/>
<path d="M69 40.7847V56.3628H53.376V40.7847H69ZM68.3034 55.569V41.4792H54.1721V55.569H68.3034Z" fill="#262626"/>
<path d="M69 25.9011V41.4792H53.376V25.9011H69ZM68.3034 40.7847V26.6949H54.1721V40.7847H68.3034Z" fill="#262626"/>
<path d="M69 11.1167V26.6948H53.376V11.1167H69ZM68.3034 25.901V11.8113H54.1721V25.901H68.3034Z" fill="#262626"/>
<path d="M54.1738 55.5686V71.1467H38.5498V55.5686H54.1738ZM53.4772 70.3529V56.2632H39.3459V70.3529H53.4772Z" fill="#262626"/>
<path d="M39.3447 55.5686V71.1467H23.7207V55.5686H39.3447ZM38.5486 70.3529V56.2632H24.5168V70.3529H38.5486Z" fill="#262626"/>
<path d="M24.5176 55.5686V71.1467H8.89355V55.5686H24.5176ZM23.7214 70.3529V56.2632H9.59017V70.3529H23.7214Z" fill="#262626"/>
</svg>
