<svg width="32" height="32" viewBox="0 0 32 32" fill="none" xmlns="http://www.w3.org/2000/svg">
<path d="M28.65 12.8717C28.6484 12.8742 28.6471 12.8768 28.6455 12.8792C28.5901 12.9624 28.5187 13.0338 28.4355 13.0892C28.433 13.0909 28.4304 13.0922 28.4278 13.0939C28.3892 13.119 28.3484 13.1405 28.3059 13.158L28.2964 13.1615C28.2542 13.1784 28.2106 13.1914 28.166 13.2003C28.1635 13.2007 28.1613 13.2008 28.1588 13.2013C28.1133 13.2099 28.0671 13.2144 28.0208 13.2145H22.0208C21.8218 13.2145 21.6311 13.1355 21.4904 12.9949C21.3498 12.8542 21.2708 12.6635 21.2708 12.4645C21.2708 12.2656 21.3498 12.0749 21.4904 11.9342C21.6311 11.7936 21.8218 11.7145 22.0208 11.7145H26.2103L23.2478 8.75204C21.3239 6.83271 18.7174 5.75481 15.9999 5.75481C13.2824 5.75481 10.6758 6.83271 8.752 8.75204C8.61073 8.88955 8.42099 8.9659 8.22384 8.96457C8.0267 8.96325 7.838 8.88435 7.69859 8.74495C7.55918 8.60556 7.48026 8.41687 7.47891 8.21972C7.47756 8.02258 7.55389 7.83283 7.69138 7.69154C9.8966 5.49114 12.8846 4.25537 15.9999 4.25537C19.1151 4.25537 22.1032 5.49114 24.3084 7.69154L27.2708 10.654V6.46441C27.2708 6.2655 27.3498 6.07474 27.4904 5.93408C27.6311 5.79343 27.8218 5.71441 28.0208 5.71441C28.2197 5.71441 28.4104 5.79343 28.5511 5.93408C28.6917 6.07474 28.7708 6.2655 28.7708 6.46441V12.4644C28.7706 12.5107 28.7662 12.5569 28.7575 12.6024C28.7571 12.6049 28.7569 12.6073 28.7564 12.6097C28.7475 12.6542 28.7345 12.6979 28.7176 12.74C28.7165 12.7432 28.7156 12.7463 28.7144 12.7494C28.6967 12.792 28.6752 12.8329 28.65 12.8715V12.8717ZM23.2478 23.2479C21.3239 25.1672 18.7174 26.2451 15.9999 26.2451C13.2824 26.2451 10.6758 25.1672 8.752 23.2479L5.7895 20.2855H9.979C10.1779 20.2855 10.3687 20.2065 10.5093 20.0659C10.65 19.9252 10.729 19.7345 10.729 19.5355C10.729 19.3366 10.65 19.1459 10.5093 19.0052C10.3687 18.8646 10.1779 18.7855 9.979 18.7855H3.979C3.93269 18.7857 3.8865 18.7901 3.841 18.7988C3.8385 18.7993 3.836 18.7994 3.83363 18.7999C3.78917 18.8088 3.74561 18.8217 3.7035 18.8385C3.70025 18.8398 3.697 18.8407 3.69388 18.842C3.65137 18.8596 3.61057 18.8811 3.572 18.9062C3.5695 18.9079 3.56675 18.9093 3.56413 18.9109C3.48094 18.9663 3.4096 19.0377 3.35425 19.1209L3.34975 19.1284C3.32458 19.1671 3.30303 19.2079 3.28538 19.2505L3.282 19.2599C3.26512 19.3021 3.25215 19.3457 3.24325 19.3903L3.24225 19.3975C3.2336 19.443 3.22916 19.4892 3.229 19.5355V25.5355C3.229 25.7345 3.30802 25.9252 3.44867 26.0659C3.58933 26.2065 3.78009 26.2855 3.979 26.2855C4.17792 26.2855 4.36868 26.2065 4.50933 26.0659C4.64999 25.9252 4.729 25.7345 4.729 25.5355V21.3463L7.6915 24.3087C9.89675 26.509 12.8847 27.7447 15.9999 27.7447C19.1151 27.7447 22.1031 26.509 24.3084 24.3087C24.4471 24.1676 24.5246 23.9775 24.5237 23.7796C24.5229 23.5818 24.444 23.3922 24.3041 23.2523C24.1642 23.1124 23.9747 23.0335 23.7768 23.0327C23.579 23.0319 23.3888 23.1093 23.2478 23.248V23.2479Z" fill="white"/>
</svg>
