<svg width="27" height="28" viewBox="0 0 27 28" fill="none" xmlns="http://www.w3.org/2000/svg">
<g clip-path="url(#clip0_30_1309)">
<path d="M13.6002 27.5882C11.7856 27.5882 10.0495 27.2349 8.39199 26.5282C6.73444 25.8216 5.30807 24.8707 4.11289 23.6755C2.91771 22.4803 1.9668 21.054 1.26016 19.3964C0.553516 17.7389 0.200195 16.0028 0.200195 14.1882C0.200195 12.3736 0.553516 10.6376 1.26016 8.98C1.9668 7.32245 2.91771 5.89609 4.11289 4.7009C5.30807 3.50572 6.73444 2.55481 8.39199 1.84817C10.0495 1.14153 11.7856 0.788208 13.6002 0.788208C15.4148 0.788208 17.1508 1.14153 18.8084 1.84817C20.466 2.55481 21.8923 3.50572 23.0875 4.7009C24.2827 5.89609 25.2336 7.32245 25.9402 8.98C26.6469 10.6376 27.0002 12.3736 27.0002 14.1882C27.0002 16.0028 26.6469 17.7389 25.9402 19.3964C25.2336 21.054 24.2827 22.4803 23.0875 23.6755C21.8923 24.8707 20.466 25.8216 18.8084 26.5282C17.1508 27.2349 15.4148 27.5882 13.6002 27.5882ZM20.3002 9.16321C20.3002 8.70956 20.1388 8.31698 19.816 7.98547C19.4932 7.65396 19.0963 7.48821 18.6252 7.48821H8.5752C8.12155 7.48821 7.72897 7.65396 7.39746 7.98547C7.06595 8.31698 6.9002 8.70956 6.9002 9.16321V10.8382H9.88379C10.8958 9.72154 12.1346 9.16321 13.6002 9.16321C15.0658 9.16321 16.3046 9.72154 17.3166 10.8382H20.3002V9.16321ZM10.2502 14.1882C10.2502 15.1129 10.5773 15.9025 11.2316 16.5568C11.8859 17.2111 12.6755 17.5382 13.6002 17.5382C14.5249 17.5382 15.3145 17.2111 15.9688 16.5568C16.623 15.9025 16.9502 15.1129 16.9502 14.1882C16.9502 13.2635 16.623 12.4739 15.9688 11.8197C15.3145 11.1654 14.5249 10.8382 13.6002 10.8382C12.6755 10.8382 11.8859 11.1654 11.2316 11.8197C10.5773 12.4739 10.2502 13.2635 10.2502 14.1882ZM20.3002 12.5132H18.3111C18.5205 13.089 18.6252 13.6473 18.6252 14.1882C18.6252 15.584 18.1367 16.7705 17.1596 17.7476C16.1825 18.7247 14.996 19.2132 13.6002 19.2132C12.2044 19.2132 11.0179 18.7247 10.0408 17.7476C9.06374 16.7705 8.5752 15.584 8.5752 14.1882C8.5752 13.6473 8.67988 13.089 8.88926 12.5132H6.9002V19.2132C6.9002 19.6843 7.06159 20.0812 7.38437 20.404C7.70716 20.7268 8.1041 20.8882 8.5752 20.8882H18.6252C19.0963 20.8882 19.4932 20.7268 19.816 20.404C20.1388 20.0812 20.3002 19.6843 20.3002 19.2132V12.5132Z" fill="white"/>
</g>
<defs>
<clipPath id="clip0_30_1309">
<rect width="26.8" height="26.8" fill="white" transform="translate(0.200195 0.788208)"/>
</clipPath>
</defs>
</svg>
