<svg width="60" height="60" viewBox="0 0 60 60" fill="none" xmlns="http://www.w3.org/2000/svg">
<path d="M29.5 49C40.2696 49 49 40.4934 49 30C49 19.5066 40.2696 11 29.5 11C18.7304 11 10 19.5066 10 30C10 40.4934 18.7304 49 29.5 49Z" fill="#29B8CE"/>
<path d="M42.6501 26.8717C42.6485 26.8742 42.6473 26.8768 42.6456 26.8792C42.5902 26.9624 42.5189 27.0338 42.4356 27.0892C42.4331 27.0909 42.4305 27.0922 42.4279 27.0939C42.3893 27.119 42.3485 27.1405 42.306 27.158L42.2965 27.1615C42.2543 27.1784 42.2107 27.1914 42.1661 27.2003C42.1636 27.2007 42.1614 27.2008 42.1589 27.2013C42.1134 27.2099 42.0672 27.2144 42.0209 27.2145H36.0209C35.822 27.2145 35.6312 27.1355 35.4905 26.9949C35.3499 26.8542 35.2709 26.6635 35.2709 26.4645C35.2709 26.2656 35.3499 26.0749 35.4905 25.9342C35.6312 25.7936 35.822 25.7145 36.0209 25.7145H40.2104L37.2479 22.752C35.3241 20.8327 32.7175 19.7548 30 19.7548C27.2825 19.7548 24.6759 20.8327 22.7521 22.752C22.6108 22.8895 22.4211 22.9659 22.224 22.9646C22.0268 22.9632 21.8381 22.8844 21.6987 22.745C21.5593 22.6056 21.4804 22.4169 21.479 22.2197C21.4777 22.0226 21.554 21.8328 21.6915 21.6915C23.8967 19.4911 26.8848 18.2554 30 18.2554C33.1152 18.2554 36.1033 19.4911 38.3085 21.6915L41.2709 24.654V20.4644C41.2709 20.2655 41.3499 20.0747 41.4906 19.9341C41.6312 19.7934 41.822 19.7144 42.0209 19.7144C42.2198 19.7144 42.4106 19.7934 42.5512 19.9341C42.6919 20.0747 42.7709 20.2655 42.7709 20.4644V26.4644C42.7707 26.5107 42.7663 26.5569 42.7576 26.6024C42.7573 26.6049 42.757 26.6073 42.7565 26.6097C42.7476 26.6542 42.7346 26.6979 42.7178 26.74C42.7166 26.7432 42.7158 26.7463 42.7145 26.7494C42.6969 26.792 42.6753 26.8329 42.6501 26.8715V26.8717ZM37.2479 37.2479C35.3241 39.1672 32.7175 40.2451 30 40.2451C27.2825 40.2451 24.6759 39.1672 22.7521 37.2479L19.7896 34.2855H23.9791C24.178 34.2855 24.3688 34.2065 24.5095 34.0659C24.6501 33.9252 24.7291 33.7345 24.7291 33.5355C24.7291 33.3366 24.6501 33.1459 24.5095 33.0052C24.3688 32.8646 24.178 32.7855 23.9791 32.7855H17.9791C17.9328 32.7857 17.8866 32.7901 17.8411 32.7988C17.8386 32.7993 17.8361 32.7994 17.8338 32.7999C17.7893 32.8088 17.7457 32.8217 17.7036 32.8385C17.7004 32.8398 17.6971 32.8407 17.694 32.842C17.6515 32.8596 17.6107 32.8811 17.5721 32.9062C17.5696 32.9079 17.5669 32.9093 17.5643 32.9109C17.4811 32.9663 17.4097 33.0377 17.3544 33.1209L17.3499 33.1284C17.3247 33.1671 17.3032 33.2079 17.2855 33.2505L17.2821 33.2599C17.2652 33.3021 17.2523 33.3457 17.2434 33.3903L17.2424 33.3975C17.2337 33.443 17.2293 33.4892 17.2291 33.5355V39.5355C17.2291 39.7345 17.3081 39.9252 17.4488 40.0659C17.5894 40.2065 17.7802 40.2855 17.9791 40.2855C18.178 40.2855 18.3688 40.2065 18.5095 40.0659C18.6501 39.9252 18.7291 39.7345 18.7291 39.5355V35.3463L21.6916 38.3087C23.8969 40.509 26.8849 41.7447 30.0001 41.7447C33.1153 41.7447 36.1033 40.509 38.3085 38.3087C38.4473 38.1676 38.5247 37.9775 38.5239 37.7796C38.5231 37.5818 38.4441 37.3922 38.3042 37.2523C38.1643 37.1124 37.9748 37.0335 37.7769 37.0327C37.5791 37.0319 37.3889 37.1093 37.2479 37.248V37.2479Z" fill="white"/>
<path d="M29.1631 60C28.7067 60 28.3516 59.5946 28.3516 59.1385C28.3516 58.6824 28.7574 58.3277 29.2139 58.3277C29.6703 58.3277 30.0254 58.7331 30.0254 59.1892C29.9746 59.6453 29.6196 60 29.1631 60ZM31.6991 59.1385C31.6483 58.6824 32.0034 58.277 32.4598 58.2263C32.9163 58.1757 33.3221 58.5304 33.3728 58.9865C33.4235 59.4426 33.0685 59.848 32.612 59.8986H32.5613C32.1048 59.8986 31.6991 59.5946 31.6991 59.1385ZM25.765 59.7466C25.3085 59.6959 25.0042 59.2399 25.0549 58.8345C25.1057 58.3784 25.5621 58.0743 25.9679 58.125C26.4243 58.1757 26.7287 58.5811 26.6779 59.0878C26.6272 59.4932 26.2722 59.7973 25.8664 59.7973C25.8157 59.7466 25.765 59.7466 25.765 59.7466ZM34.9958 58.7838C34.8943 58.3277 35.1986 57.8716 35.6551 57.8209C36.1116 57.7196 36.568 58.0236 36.6188 58.4797C36.7202 58.9358 36.4159 59.3919 35.9594 59.4426C35.9087 59.4426 35.858 59.4426 35.8073 59.4426C35.4522 59.4426 35.0972 59.1892 34.9958 58.7838ZM22.3669 59.0372C21.9104 58.9358 21.6568 58.4797 21.7582 58.0236C21.8597 57.5676 22.3161 57.3142 22.7726 57.4155C23.2291 57.5169 23.4827 57.973 23.3812 58.4291C23.2798 58.7838 22.9248 59.0372 22.5697 59.0372C22.519 59.0878 22.4683 59.0878 22.3669 59.0372ZM38.2418 58.0236C38.0896 57.5676 38.3432 57.1115 38.7489 56.9595C39.2054 56.8074 39.6619 57.0608 39.814 57.5169C39.9662 57.973 39.7126 58.4291 39.2561 58.5811C39.1547 58.5811 39.104 58.6318 39.0025 58.6318C38.6982 58.5811 38.3432 58.3784 38.2418 58.0236ZM19.1209 57.973C18.7151 57.8209 18.4615 57.3142 18.6644 56.9088C18.8166 56.5034 19.3238 56.25 19.7295 56.4527C20.1353 56.6047 20.3888 57.1115 20.186 57.5169C20.0845 57.8209 19.7295 58.0236 19.4252 58.0236C19.3238 58.0743 19.2223 58.0236 19.1209 57.973ZM41.3863 56.9088C41.1834 56.5034 41.3863 55.9966 41.7921 55.7939C42.1978 55.5912 42.705 55.7939 42.9079 56.1993C43.1107 56.6047 42.9079 57.1115 42.5021 57.3142C42.4007 57.3649 42.2992 57.3649 42.1471 57.3649C41.8428 57.4155 41.5385 57.2128 41.3863 56.9088ZM15.9763 56.5541C15.5706 56.3513 15.4184 55.8446 15.6213 55.4392C15.8242 55.0338 16.3314 54.8818 16.7371 55.0845C17.1429 55.2872 17.295 55.7939 17.0921 56.1993C16.94 56.5034 16.6357 56.6554 16.3821 56.6554C16.2299 56.6554 16.1285 56.6554 15.9763 56.5541ZM44.3787 55.4392C44.1251 55.0338 44.2773 54.527 44.683 54.2736C45.0888 54.0203 45.5959 54.1723 45.8495 54.527C46.1031 54.9324 45.951 55.4392 45.5452 55.6926C45.3931 55.7939 45.2409 55.7939 45.1395 55.7939C44.8352 55.8446 44.5309 55.6926 44.3787 55.4392ZM13.0347 54.7804C12.6796 54.527 12.5782 54.0203 12.8318 53.6149C13.0854 53.2601 13.5926 53.1588 13.9983 53.4122C14.3533 53.6655 14.4548 54.1723 14.2012 54.5777C14.049 54.8311 13.7954 54.9324 13.4911 54.9324C13.339 54.9324 13.1868 54.8818 13.0347 54.7804ZM47.1682 53.6149C46.8639 53.2601 46.9653 52.7534 47.3204 52.4493C47.6754 52.1453 48.1826 52.2466 48.4869 52.6013C48.7912 52.9561 48.6898 53.4628 48.3347 53.7669C48.1826 53.8682 48.0304 53.9189 47.8276 53.9189C47.574 53.9696 47.3711 53.8176 47.1682 53.6149ZM10.3466 52.7027C9.99155 52.3986 9.94083 51.8919 10.2451 51.5372C10.5495 51.1824 11.0566 51.1318 11.4117 51.4358C11.7667 51.7399 11.8174 52.2466 11.5131 52.6013C11.3609 52.8041 11.1074 52.9054 10.9045 52.9054C10.7016 52.9054 10.4987 52.8547 10.3466 52.7027ZM49.7549 51.5372C49.4505 51.2331 49.4505 50.6757 49.7549 50.3716C50.1099 50.0676 50.6171 50.0676 50.9214 50.3716C51.2257 50.6757 51.2257 51.2331 50.9214 51.5372C50.7692 51.6892 50.5664 51.7905 50.3635 51.7905C50.1606 51.7905 49.9577 51.6892 49.7549 51.5372ZM7.86137 50.3209C7.55706 49.9662 7.55706 49.4595 7.91209 49.1554C8.26712 48.8513 8.7743 48.8513 9.07861 49.2061C9.38292 49.5608 9.38292 50.0676 9.02789 50.3716C8.87574 50.5236 8.67287 50.5743 8.46999 50.5743C8.26712 50.5743 8.06424 50.5236 7.86137 50.3209ZM52.0879 49.1047C51.7329 48.8007 51.6822 48.2939 51.9865 47.9392C52.2908 47.5845 52.798 47.5338 53.153 47.8378C53.508 48.1419 53.5587 48.6486 53.2544 49.0034C53.1023 49.2061 52.8487 49.3074 52.5951 49.3074C52.4429 49.3074 52.2401 49.2568 52.0879 49.1047ZM5.68047 47.6858C5.42688 47.3311 5.4776 46.7736 5.88335 46.5203C6.23838 46.2669 6.79628 46.3176 7.04987 46.723C7.30347 47.0777 7.25275 47.6351 6.847 47.8885C6.69484 47.9899 6.54269 48.0405 6.33981 48.0405C6.13694 47.9899 5.88335 47.8885 5.68047 47.6858ZM54.1166 46.4696C53.7109 46.2162 53.6095 45.7095 53.8631 45.3041C54.1166 44.8986 54.6238 44.7973 55.0296 45.0507C55.4353 45.3041 55.5368 45.8108 55.2832 46.2162C55.131 46.4696 54.8774 46.6216 54.5731 46.6216C54.421 46.6216 54.2688 46.5709 54.1166 46.4696ZM3.85461 44.7973C3.60101 44.3919 3.75317 43.8851 4.15892 43.6824C4.56467 43.4291 5.07185 43.5811 5.27472 43.9865C5.4776 44.3919 5.37616 44.8986 4.97041 45.1013C4.81826 45.152 4.71682 45.2027 4.56467 45.2027C4.26035 45.2027 4.00676 45.0507 3.85461 44.7973ZM55.8411 43.6318C55.4353 43.4291 55.2832 42.9223 55.486 42.5169C55.6889 42.1115 56.1961 41.9595 56.6019 42.1622C57.0076 42.3649 57.1598 42.8716 56.9569 43.277C56.8047 43.5811 56.5004 43.7331 56.1961 43.7331C56.0947 43.7331 55.9932 43.6824 55.8411 43.6318ZM2.33305 41.7061C2.13018 41.3007 2.33305 40.7939 2.78952 40.5912C3.19527 40.4392 3.70245 40.5912 3.90533 41.0473C4.1082 41.4527 3.90533 41.9595 3.44886 42.1115C3.34742 42.1622 3.24598 42.1622 3.14455 42.1622C2.78952 42.2128 2.48521 42.0608 2.33305 41.7061ZM57.2612 40.5912C56.8047 40.4392 56.6019 39.9831 56.754 39.527C56.9062 39.0709 57.3626 38.8682 57.8191 39.0203C58.2756 39.1723 58.4784 39.6284 58.3263 40.0845C58.2248 40.4392 57.8698 40.6419 57.5655 40.6419C57.4134 40.6419 57.3626 40.6419 57.2612 40.5912ZM1.16653 38.5135C1.01437 38.0574 1.26796 37.6013 1.72443 37.5C2.1809 37.348 2.63736 37.6013 2.7388 38.0574C2.89096 38.5135 2.63736 38.9696 2.1809 39.0709C2.07946 39.0709 2.02874 39.1216 1.9273 39.1216C1.62299 39.0709 1.26796 38.8682 1.16653 38.5135ZM58.2756 37.4493C57.8191 37.348 57.5655 36.8919 57.6669 36.4358C57.7684 35.9797 58.2248 35.7263 58.6813 35.8277C59.1378 35.9291 59.3914 36.3851 59.2899 36.8412C59.1885 37.2466 58.8842 37.5 58.4784 37.5C58.377 37.4493 58.3263 37.4493 58.2756 37.4493ZM0.405748 35.1689C0.304311 34.7128 0.608622 34.3074 1.06509 34.2061C1.52156 34.1047 1.9273 34.4088 2.02874 34.8649C2.13018 35.3209 1.82587 35.7263 1.3694 35.8277C1.31868 35.8277 1.26796 35.8277 1.21724 35.8277C0.811496 35.8277 0.456467 35.5743 0.405748 35.1689ZM58.9349 34.1554C58.4784 34.1047 58.1741 33.6993 58.2248 33.2432C58.2756 32.7872 58.6813 32.4831 59.1378 32.5338C59.5942 32.5845 59.8986 32.9899 59.8478 33.4459C59.7971 33.8513 59.4421 34.2061 59.0363 34.2061C58.9856 34.1554 58.9856 34.1554 58.9349 34.1554ZM0 31.7736C0 31.3176 0.304311 30.9122 0.760778 30.9122C1.21724 30.9122 1.62299 31.2162 1.62299 31.6723C1.62299 32.1284 1.31868 32.5338 0.862215 32.5338H0.811496C0.405748 32.5338 0.0507185 32.1791 0 31.7736ZM58.377 30C58.377 29.9493 58.377 29.9493 58.377 29.9493C58.377 29.4932 58.732 29.1385 59.1885 29.1385C59.645 29.1385 60 29.4932 60 29.9493C60 29.9493 60 29.9493 60 30C60 30 60 30 60 30.0507C60 30.5068 59.645 30.8615 59.1885 30.8615C58.732 30.8615 58.377 30.4561 58.377 30ZM0.760778 29.1892C0.304311 29.1892 0 28.7838 0 28.3277C0 27.8716 0.405748 27.5169 0.862215 27.5676C1.31868 27.5676 1.67371 27.973 1.62299 28.4291C1.62299 28.8345 1.26796 29.1892 0.760778 29.1892C0.811496 29.1892 0.811496 29.1892 0.760778 29.1892ZM58.1741 26.7061C58.1234 26.25 58.4277 25.8446 58.8842 25.7939C59.3407 25.7432 59.7464 26.0473 59.7971 26.5034C59.8478 26.9595 59.5435 27.3649 59.0871 27.4155C59.0363 27.4155 59.0363 27.4155 58.9856 27.4155C58.5799 27.4662 58.2248 27.1622 58.1741 26.7061ZM1.06509 25.8953C0.608622 25.7939 0.304311 25.3885 0.405748 24.9324C0.507185 24.4764 0.912933 24.1723 1.3694 24.2736C1.82587 24.375 2.13018 24.7804 2.02874 25.2365C1.97802 25.6419 1.62299 25.9459 1.21724 25.9459C1.16653 25.8953 1.11581 25.8953 1.06509 25.8953ZM57.6162 23.5135C57.5148 23.0574 57.7684 22.6014 58.2248 22.5C58.6813 22.3986 59.1378 22.652 59.2392 23.1081C59.3407 23.5642 59.0871 24.0203 58.6306 24.1216C58.5799 24.1216 58.4784 24.1216 58.4277 24.1216C58.0727 24.1723 57.7177 23.9189 57.6162 23.5135ZM1.72443 22.6013C1.26796 22.4493 1.01437 21.9932 1.16653 21.5878C1.31868 21.1318 1.77515 20.8784 2.1809 21.0304C2.63736 21.1824 2.89096 21.6385 2.7388 22.0439C2.63736 22.3986 2.28233 22.652 1.9273 22.652C1.87658 22.652 1.77515 22.652 1.72443 22.6013ZM56.7033 20.4223C56.5511 19.9662 56.754 19.5101 57.2105 19.3581C57.6669 19.2061 58.1234 19.4088 58.2756 19.8649C58.4277 20.3209 58.2248 20.777 57.7684 20.9291C57.6669 20.9797 57.5655 20.9797 57.4641 20.9797C57.1598 20.9797 56.8554 20.777 56.7033 20.4223ZM2.7388 19.4595C2.33305 19.2568 2.13018 18.75 2.28233 18.3446C2.48521 17.9392 2.94167 17.7365 3.34742 17.8885C3.75317 18.0912 3.95604 18.5473 3.80389 18.9527C3.65173 19.2568 3.34742 19.4595 3.04311 19.4595C2.94167 19.5101 2.84024 19.4595 2.7388 19.4595ZM55.4353 17.4324C55.2325 17.027 55.3846 16.5203 55.7904 16.3176C56.1961 16.1149 56.7033 16.2669 56.9062 16.6723C57.109 17.0777 56.9569 17.5845 56.5511 17.7872C56.4497 17.8378 56.2975 17.8885 56.1961 17.8885C55.8918 17.8885 55.5875 17.7365 55.4353 17.4324ZM4.1082 16.4189C3.70245 16.1655 3.5503 15.7095 3.80389 15.3041C4.05748 14.8986 4.56467 14.7466 4.97041 14.9493C5.37616 15.152 5.52832 15.6588 5.27472 16.0642C5.12257 16.3176 4.81826 16.4696 4.56467 16.4696C4.41251 16.5203 4.26035 16.4696 4.1082 16.4189ZM53.8631 14.6453C53.6095 14.2399 53.7109 13.7331 54.1166 13.4797C54.5224 13.2264 55.0296 13.3277 55.2832 13.7331C55.5368 14.1385 55.4353 14.6453 55.0296 14.8986C54.8774 15 54.7253 15.0507 54.5731 15.0507C54.2688 15 54.0152 14.8986 53.8631 14.6453ZM5.83263 13.5304C5.4776 13.277 5.37616 12.7196 5.62976 12.3649C5.88335 12.0101 6.44125 11.9088 6.79628 12.1622C7.15131 12.4155 7.25275 12.973 6.99915 13.3277C6.847 13.5811 6.59341 13.6824 6.33981 13.6824C6.18766 13.6824 5.98478 13.6318 5.83263 13.5304ZM51.9358 12.0101C51.6314 11.6554 51.6822 11.1486 52.0372 10.8446C52.3922 10.5405 52.8994 10.5912 53.2037 10.9459C53.508 11.3007 53.4573 11.8074 53.1023 12.1115C52.9501 12.2128 52.7472 12.3142 52.5951 12.3142C52.3415 12.3142 52.0879 12.2128 51.9358 12.0101ZM7.91209 10.8953C7.55706 10.5912 7.55706 10.0845 7.86137 9.72973C8.16568 9.375 8.67286 9.375 9.02789 9.67905C9.38292 9.98311 9.38292 10.5405 9.07861 10.8446C8.92646 11.0473 8.67287 11.098 8.46999 11.098C8.26712 11.1486 8.06424 11.0473 7.91209 10.8953ZM49.7549 9.62838C49.4505 9.32432 49.3998 8.76689 49.7549 8.46284C50.0592 8.10811 50.6171 8.10811 50.9214 8.46284C51.2764 8.76689 51.2764 9.32432 50.9214 9.62838C50.7692 9.78041 50.5156 9.88176 50.3128 9.88176C50.1099 9.88176 49.907 9.78041 49.7549 9.62838ZM10.1944 8.51351C9.89011 8.15878 9.94083 7.65203 10.2959 7.34797C10.6509 7.04392 11.1581 7.09459 11.4624 7.44932C11.7667 7.80405 11.716 8.31081 11.3609 8.61486C11.2088 8.76689 11.0059 8.81757 10.803 8.81757C10.6002 8.81757 10.3973 8.71622 10.1944 8.51351ZM47.2696 7.5C46.9146 7.24662 46.8132 6.68919 47.1175 6.33446C47.3711 5.97973 47.929 5.87838 48.284 6.18243C48.639 6.43581 48.7405 6.99324 48.4362 7.34797C48.284 7.55068 48.0304 7.65203 47.7768 7.65203C47.6247 7.7027 47.4218 7.65203 47.2696 7.5ZM12.7811 6.38513C12.5275 6.03041 12.6289 5.47297 12.9839 5.21959C13.339 4.96622 13.8969 5.06757 14.1505 5.4223C14.4041 5.77703 14.3026 6.33446 13.9476 6.58784C13.7954 6.68919 13.6433 6.73986 13.4911 6.73986C13.1868 6.73986 12.9332 6.63851 12.7811 6.38513ZM44.6323 5.67568C44.2265 5.4223 44.1251 4.91554 44.328 4.51013C44.5816 4.10473 45.0888 4.00338 45.4945 4.20608C45.9002 4.45946 46.0017 4.96622 45.7988 5.37162C45.6467 5.625 45.3424 5.77703 45.0888 5.77703C44.8859 5.8277 44.7337 5.77703 44.6323 5.67568ZM15.5706 4.61149C15.3677 4.20608 15.5199 3.69932 15.9256 3.49662C16.3314 3.29392 16.8385 3.44595 17.0414 3.85135C17.2443 4.25676 17.0921 4.76351 16.6864 4.96622C16.585 5.01689 16.4328 5.06757 16.2806 5.06757C16.027 5.01689 15.7227 4.86486 15.5706 4.61149ZM41.7413 4.20608C41.3356 4.00338 41.1327 3.5473 41.3356 3.09122C41.5385 2.68581 41.9949 2.48311 42.4514 2.68581C42.8571 2.88851 43.06 3.34459 42.8571 3.80068C42.705 4.10473 42.4007 4.30743 42.0964 4.30743C41.9949 4.25676 41.8428 4.20608 41.7413 4.20608ZM18.563 3.09122C18.4108 2.68581 18.6137 2.17905 19.0194 2.02703C19.4252 1.875 19.9324 2.0777 20.0845 2.48311C20.2367 2.88851 20.0338 3.39527 19.6281 3.5473C19.5266 3.59797 19.4252 3.59797 19.3238 3.59797C19.0194 3.64865 18.7151 3.44595 18.563 3.09122ZM38.7489 2.98986C38.2925 2.83784 38.0896 2.38176 38.191 1.92568C38.3432 1.46959 38.7997 1.26689 39.2561 1.36824C39.7126 1.52027 39.9155 1.97635 39.814 2.43243C39.6619 2.83784 39.3576 3.04054 39.0025 3.04054C38.9011 3.04054 38.7997 3.04054 38.7489 2.98986ZM21.7075 1.97635C21.6061 1.52027 21.8597 1.06419 22.3161 0.962838C22.7726 0.861486 23.2291 1.11486 23.3305 1.57095C23.432 2.02703 23.1784 2.48311 22.7219 2.58446C22.6712 2.58446 22.5697 2.63513 22.519 2.63513C22.164 2.58446 21.809 2.38176 21.7075 1.97635ZM35.6044 2.17905C35.1479 2.0777 34.8436 1.6723 34.9451 1.21622C35.0465 0.760135 35.4522 0.456081 35.9087 0.557432C36.3652 0.658784 36.6695 1.06419 36.568 1.52027C36.4666 1.92568 36.1623 2.17905 35.7565 2.17905C35.7058 2.22973 35.6551 2.22973 35.6044 2.17905ZM24.9535 1.21622C24.9028 0.760135 25.2071 0.35473 25.6636 0.253378C26.12 0.202703 26.5258 0.506757 26.6272 0.962838C26.6779 1.41892 26.3736 1.82432 25.9172 1.875C25.8664 1.875 25.8157 1.875 25.8157 1.875C25.41 1.92568 25.0549 1.6723 24.9535 1.21622ZM32.4091 1.72297C31.9527 1.6723 31.5976 1.26689 31.6484 0.810811C31.6991 0.35473 32.1048 0 32.5613 0.0506757C32.967 0.152027 33.3221 0.506757 33.2713 0.962838C33.2206 1.41892 32.8656 1.72297 32.4598 1.72297C32.4091 1.72297 32.4091 1.72297 32.4091 1.72297ZM28.3009 0.861486C28.3009 0.405405 28.656 0 29.1124 0C29.5689 0 29.9239 0.35473 29.9239 0.810811C29.9239 1.26689 29.5689 1.6723 29.1124 1.6723C28.656 1.6723 28.3009 1.31757 28.3009 0.861486Z" fill="#939393"/>
</svg>
