<svg width="25" height="25" viewBox="0 0 25 25" fill="none" xmlns="http://www.w3.org/2000/svg">
<path d="M5.35718 8.52979H16.0715" stroke="white" stroke-linecap="round" stroke-linejoin="round"/>
<path fill-rule="evenodd" clip-rule="evenodd" d="M6.52503 12.1464L7.71551 12.125C8.00713 12.1194 8.29067 12.221 8.51231 12.4106C8.73396 12.6002 8.87828 12.8646 8.91789 13.1535L8.92861 13.3143V14.4857C8.92866 14.7975 8.80635 15.097 8.58796 15.3196C8.36957 15.5422 8.07255 15.6702 7.76075 15.6762L6.57027 15.6976C6.27865 15.7032 5.99511 15.6016 5.77347 15.412C5.55183 15.2224 5.40751 14.958 5.36789 14.669L5.35718 14.5071V13.3369C5.35712 13.025 5.47944 12.7256 5.69783 12.503C5.91621 12.2804 6.21324 12.1523 6.52503 12.1464V12.1464Z" stroke="white" stroke-linecap="round" stroke-linejoin="round"/>
<path fill-rule="evenodd" clip-rule="evenodd" d="M4.16672 4.94043H17.262C17.8934 4.94043 18.499 5.19128 18.9455 5.63779C19.3921 6.08431 19.6429 6.68991 19.6429 7.32138V19.244H4.16672C3.53525 19.244 2.92965 18.9931 2.48313 18.5466C2.03662 18.1001 1.78577 17.4945 1.78577 16.863V7.32257C1.78577 6.6911 2.03662 6.0855 2.48313 5.63898C2.92965 5.19247 3.53525 4.94162 4.16672 4.94162V4.94043Z" stroke="white" stroke-linecap="round" stroke-linejoin="round"/>
<path d="M11.3096 12.1011H16.0715" stroke="white" stroke-linecap="round" stroke-linejoin="round"/>
<path d="M11.3096 15.6726H16.0715" stroke="white" stroke-linecap="round" stroke-linejoin="round"/>
<path d="M19.0477 19.2441C19.8371 19.2441 20.5941 18.9305 21.1522 18.3724C21.7104 17.8142 22.0239 17.0572 22.0239 16.2679V8.52979H19.643" stroke="white" stroke-linecap="round" stroke-linejoin="round"/>
</svg>
