<svg width="376" height="105" viewBox="0 0 376 105" fill="none" xmlns="http://www.w3.org/2000/svg">
<g clip-path="url(#clip0_32_1865)">
<path d="M375.7 0H177.2V29.2H375.7V0Z" fill="#262626"/>
<path d="M65.7998 18.1C65.7998 19.1 66.5998 19.9 67.5998 19.9C68.5998 19.9 69.3998 19.1 69.3998 18.1C69.3998 17.1 68.5998 16.3 67.5998 16.3C66.5998 16.3 65.7998 17.1 65.7998 18.1Z" fill="#29B8CE"/>
<path d="M85.7998 18.1C85.7998 19.1 86.5998 19.9 87.5998 19.9C88.5998 19.9 89.3998 19.1 89.3998 18.1C89.3998 17.1 88.5998 16.3 87.5998 16.3C86.5998 16.3 85.7998 17.1 85.7998 18.1Z" fill="#29B8CE"/>
<path d="M105.7 18.1C105.7 19.1 106.5 19.9 107.5 19.9C108.5 19.9 109.3 19.1 109.3 18.1C109.3 17.1 108.5 16.3 107.5 16.3C106.6 16.3 105.7 17.1 105.7 18.1Z" fill="#29B8CE"/>
<path d="M125.7 18.1C125.7 19.1 126.5 19.9 127.5 19.9C128.5 19.9 129.3 19.1 129.3 18.1C129.3 17.1 128.5 16.3 127.5 16.3C126.5 16.3 125.7 17.1 125.7 18.1Z" fill="#29B8CE"/>
<path d="M145.7 18.1C145.7 19.1 146.5 19.9 147.5 19.9C148.5 19.9 149.3 19.1 149.3 18.1C149.3 17.1 148.5 16.3 147.5 16.3C146.5 16.3 145.7 17.1 145.7 18.1Z" fill="#29B8CE"/>
<path d="M165.6 18.1C165.6 19.1 166.4 19.9 167.4 19.9C168.4 19.9 169.2 19.1 169.2 18.1C169.2 17.1 168.4 16.3 167.4 16.3C166.4 16.3 165.6 17.1 165.6 18.1Z" fill="#29B8CE"/>
<path d="M185.6 18.1C185.6 19.1 186.4 19.9 187.4 19.9C188.4 19.9 189.2 19.1 189.2 18.1C189.2 17.1 188.4 16.3 187.4 16.3C186.4 16.3 185.6 17.1 185.6 18.1Z" fill="#29B8CE"/>
<path d="M205.5 18.1C205.5 19.1 206.3 19.9 207.3 19.9C208.3 19.9 209.1 19.1 209.1 18.1C209.1 17.1 208.3 16.3 207.3 16.3C206.3 16.3 205.5 17.1 205.5 18.1Z" fill="#29B8CE"/>
<path d="M225.5 18.1C225.5 19.1 226.3 19.9 227.3 19.9C228.3 19.9 229.1 19.1 229.1 18.1C229.1 17.1 228.3 16.3 227.3 16.3C226.3 16.3 225.5 17.1 225.5 18.1Z" fill="#29B8CE"/>
<path d="M245.5 18.1C245.5 19.1 246.3 19.9 247.3 19.9C248.3 19.9 249.1 19.1 249.1 18.1C249.1 17.1 248.3 16.3 247.3 16.3C246.3 16.3 245.5 17.1 245.5 18.1Z" fill="#29B8CE"/>
<path d="M265.399 18.1C265.399 19.1 266.199 19.9 267.199 19.9C268.199 19.9 268.999 19.1 268.999 18.1C268.999 17.1 268.199 16.3 267.199 16.3C266.199 16.3 265.399 17.1 265.399 18.1Z" fill="#29B8CE"/>
<path d="M285.399 18.1C285.399 19.1 286.199 19.9 287.199 19.9C288.199 19.9 288.999 19.1 288.999 18.1C288.999 17.1 288.199 16.3 287.199 16.3C286.199 16.3 285.399 17.1 285.399 18.1Z" fill="#29B8CE"/>
<path d="M305.3 18.1C305.3 19.1 306.1 19.9 307.1 19.9C308.1 19.9 308.9 19.1 308.9 18.1C308.9 17.1 308.1 16.3 307.1 16.3C306.1 16.3 305.3 17.1 305.3 18.1Z" fill="#29B8CE"/>
<path d="M65.7998 35.1C65.7998 36.1 66.5998 36.9001 67.5998 36.9001C68.5998 36.9001 69.3998 36.1 69.3998 35.1C69.3998 34.1 68.5998 33.3 67.5998 33.3C66.5998 33.3 65.7998 34.1 65.7998 35.1Z" fill="#29B8CE"/>
<path d="M85.7998 35.1C85.7998 36.1 86.5998 36.9001 87.5998 36.9001C88.5998 36.9001 89.3998 36.1 89.3998 35.1C89.3998 34.1 88.5998 33.3 87.5998 33.3C86.5998 33.3 85.7998 34.1 85.7998 35.1Z" fill="#29B8CE"/>
<path d="M105.7 35.1C105.7 36.1 106.5 36.9001 107.5 36.9001C108.5 36.9001 109.3 36.1 109.3 35.1C109.3 34.1 108.5 33.3 107.5 33.3C106.6 33.3 105.7 34.1 105.7 35.1Z" fill="#29B8CE"/>
<path d="M125.7 35.1C125.7 36.1 126.5 36.9001 127.5 36.9001C128.5 36.9001 129.3 36.1 129.3 35.1C129.3 34.1 128.5 33.3 127.5 33.3C126.5 33.3 125.7 34.1 125.7 35.1Z" fill="#29B8CE"/>
<path d="M145.7 35.1C145.7 36.1 146.5 36.9001 147.5 36.9001C148.5 36.9001 149.3 36.1 149.3 35.1C149.3 34.1 148.5 33.3 147.5 33.3C146.5 33.3 145.7 34.1 145.7 35.1Z" fill="#29B8CE"/>
<path d="M165.6 35.1C165.6 36.1 166.4 36.9001 167.4 36.9001C168.4 36.9001 169.2 36.1 169.2 35.1C169.2 34.1 168.4 33.3 167.4 33.3C166.4 33.3 165.6 34.1 165.6 35.1Z" fill="#29B8CE"/>
<path d="M185.6 35.1C185.6 36.1 186.4 36.9001 187.4 36.9001C188.4 36.9001 189.2 36.1 189.2 35.1C189.2 34.1 188.4 33.3 187.4 33.3C186.4 33.3 185.6 34.1 185.6 35.1Z" fill="#29B8CE"/>
<path d="M205.5 35.1C205.5 36.1 206.3 36.9001 207.3 36.9001C208.3 36.9001 209.1 36.1 209.1 35.1C209.1 34.1 208.3 33.3 207.3 33.3C206.3 33.3 205.5 34.1 205.5 35.1Z" fill="#29B8CE"/>
<path d="M225.5 35.1C225.5 36.1 226.3 36.9001 227.3 36.9001C228.3 36.9001 229.1 36.1 229.1 35.1C229.1 34.1 228.3 33.3 227.3 33.3C226.3 33.3 225.5 34.1 225.5 35.1Z" fill="#29B8CE"/>
<path d="M245.5 35.1C245.5 36.1 246.3 36.9001 247.3 36.9001C248.3 36.9001 249.1 36.1 249.1 35.1C249.1 34.1 248.3 33.3 247.3 33.3C246.3 33.3 245.5 34.1 245.5 35.1Z" fill="#29B8CE"/>
<path d="M265.399 35.1C265.399 36.1 266.199 36.9001 267.199 36.9001C268.199 36.9001 268.999 36.1 268.999 35.1C268.999 34.1 268.199 33.3 267.199 33.3C266.199 33.3 265.399 34.1 265.399 35.1Z" fill="#29B8CE"/>
<path d="M285.399 35.1C285.399 36.1 286.199 36.9001 287.199 36.9001C288.199 36.9001 288.999 36.1 288.999 35.1C288.999 34.1 288.199 33.3 287.199 33.3C286.199 33.3 285.399 34.1 285.399 35.1Z" fill="#29B8CE"/>
<path d="M305.3 35.1C305.3 36.1 306.1 36.9001 307.1 36.9001C308.1 36.9001 308.9 36.1 308.9 35.1C308.9 34.1 308.1 33.3 307.1 33.3C306.1 33.3 305.3 34.1 305.3 35.1Z" fill="#29B8CE"/>
<path d="M65.7998 52.1C65.7998 53.1 66.5998 53.9001 67.5998 53.9001C68.5998 53.9001 69.3998 53.1 69.3998 52.1C69.3998 51.1 68.5998 50.3 67.5998 50.3C66.5998 50.3 65.7998 51.1 65.7998 52.1Z" fill="#29B8CE"/>
<path d="M85.7998 52.1C85.7998 53.1 86.5998 53.9001 87.5998 53.9001C88.5998 53.9001 89.3998 53.1 89.3998 52.1C89.3998 51.1 88.5998 50.3 87.5998 50.3C86.5998 50.3 85.7998 51.1 85.7998 52.1Z" fill="#29B8CE"/>
<path d="M105.7 52.1C105.7 53.1 106.5 53.9001 107.5 53.9001C108.5 53.9001 109.3 53.1 109.3 52.1C109.3 51.1 108.5 50.3 107.5 50.3C106.6 50.3 105.7 51.1 105.7 52.1Z" fill="#29B8CE"/>
<path d="M125.7 52.1C125.7 53.1 126.5 53.9001 127.5 53.9001C128.5 53.9001 129.3 53.1 129.3 52.1C129.3 51.1 128.5 50.3 127.5 50.3C126.5 50.3 125.7 51.1 125.7 52.1Z" fill="#29B8CE"/>
<path d="M145.7 52.1C145.7 53.1 146.5 53.9001 147.5 53.9001C148.5 53.9001 149.3 53.1 149.3 52.1C149.3 51.1 148.5 50.3 147.5 50.3C146.5 50.3 145.7 51.1 145.7 52.1Z" fill="#29B8CE"/>
<path d="M165.6 52.1C165.6 53.1 166.4 53.9001 167.4 53.9001C168.4 53.9001 169.2 53.1 169.2 52.1C169.2 51.1 168.4 50.3 167.4 50.3C166.4 50.3 165.6 51.1 165.6 52.1Z" fill="#29B8CE"/>
<path d="M185.6 52.1C185.6 53.1 186.4 53.9001 187.4 53.9001C188.4 53.9001 189.2 53.1 189.2 52.1C189.2 51.1 188.4 50.3 187.4 50.3C186.4 50.3 185.6 51.1 185.6 52.1Z" fill="#29B8CE"/>
<path d="M205.5 52.1C205.5 53.1 206.3 53.9001 207.3 53.9001C208.3 53.9001 209.1 53.1 209.1 52.1C209.1 51.1 208.3 50.3 207.3 50.3C206.3 50.3 205.5 51.1 205.5 52.1Z" fill="#29B8CE"/>
<path d="M225.5 52.1C225.5 53.1 226.3 53.9001 227.3 53.9001C228.3 53.9001 229.1 53.1 229.1 52.1C229.1 51.1 228.3 50.3 227.3 50.3C226.3 50.3 225.5 51.1 225.5 52.1Z" fill="#29B8CE"/>
<path d="M245.5 52.1C245.5 53.1 246.3 53.9001 247.3 53.9001C248.3 53.9001 249.1 53.1 249.1 52.1C249.1 51.1 248.3 50.3 247.3 50.3C246.3 50.3 245.5 51.1 245.5 52.1Z" fill="#29B8CE"/>
<path d="M265.399 52.1C265.399 53.1 266.199 53.9001 267.199 53.9001C268.199 53.9001 268.999 53.1 268.999 52.1C268.999 51.1 268.199 50.3 267.199 50.3C266.199 50.3 265.399 51.1 265.399 52.1Z" fill="#29B8CE"/>
<path d="M285.399 52.1C285.399 53.1 286.199 53.9001 287.199 53.9001C288.199 53.9001 288.999 53.1 288.999 52.1C288.999 51.1 288.199 50.3 287.199 50.3C286.199 50.3 285.399 51.1 285.399 52.1Z" fill="#29B8CE"/>
<path d="M305.3 52.1C305.3 53.1 306.1 53.9001 307.1 53.9001C308.1 53.9001 308.9 53.1 308.9 52.1C308.9 51.1 308.1 50.3 307.1 50.3C306.1 50.3 305.3 51.1 305.3 52.1Z" fill="#29B8CE"/>
<path d="M65.7998 69.1C65.7998 70.1 66.5998 70.9 67.5998 70.9C68.5998 70.9 69.3998 70.1 69.3998 69.1C69.3998 68.1 68.5998 67.3 67.5998 67.3C66.5998 67.3 65.7998 68.1 65.7998 69.1Z" fill="#29B8CE"/>
<path d="M85.7998 69.1C85.7998 70.1 86.5998 70.9 87.5998 70.9C88.5998 70.9 89.3998 70.1 89.3998 69.1C89.3998 68.1 88.5998 67.3 87.5998 67.3C86.5998 67.3 85.7998 68.1 85.7998 69.1Z" fill="#29B8CE"/>
<path d="M105.7 69.1C105.7 70.1 106.5 70.9 107.5 70.9C108.5 70.9 109.3 70.1 109.3 69.1C109.3 68.1 108.5 67.3 107.5 67.3C106.6 67.3 105.7 68.1 105.7 69.1Z" fill="#29B8CE"/>
<path d="M125.7 69.1C125.7 70.1 126.5 70.9 127.5 70.9C128.5 70.9 129.3 70.1 129.3 69.1C129.3 68.1 128.5 67.3 127.5 67.3C126.5 67.3 125.7 68.1 125.7 69.1Z" fill="#29B8CE"/>
<path d="M145.7 69.1C145.7 70.1 146.5 70.9 147.5 70.9C148.5 70.9 149.3 70.1 149.3 69.1C149.3 68.1 148.5 67.3 147.5 67.3C146.5 67.3 145.7 68.1 145.7 69.1Z" fill="#29B8CE"/>
<path d="M165.6 69.1C165.6 70.1 166.4 70.9 167.4 70.9C168.4 70.9 169.2 70.1 169.2 69.1C169.2 68.1 168.4 67.3 167.4 67.3C166.4 67.3 165.6 68.1 165.6 69.1Z" fill="#29B8CE"/>
<path d="M185.6 69.1C185.6 70.1 186.4 70.9 187.4 70.9C188.4 70.9 189.2 70.1 189.2 69.1C189.2 68.1 188.4 67.3 187.4 67.3C186.4 67.3 185.6 68.1 185.6 69.1Z" fill="#29B8CE"/>
<path d="M205.5 69.1C205.5 70.1 206.3 70.9 207.3 70.9C208.3 70.9 209.1 70.1 209.1 69.1C209.1 68.1 208.3 67.3 207.3 67.3C206.3 67.3 205.5 68.1 205.5 69.1Z" fill="#29B8CE"/>
<path d="M225.5 69.1C225.5 70.1 226.3 70.9 227.3 70.9C228.3 70.9 229.1 70.1 229.1 69.1C229.1 68.1 228.3 67.3 227.3 67.3C226.3 67.3 225.5 68.1 225.5 69.1Z" fill="#29B8CE"/>
<path d="M245.5 69.1C245.5 70.1 246.3 70.9 247.3 70.9C248.3 70.9 249.1 70.1 249.1 69.1C249.1 68.1 248.3 67.3 247.3 67.3C246.3 67.3 245.5 68.1 245.5 69.1Z" fill="#29B8CE"/>
<path d="M265.399 69.1C265.399 70.1 266.199 70.9 267.199 70.9C268.199 70.9 268.999 70.1 268.999 69.1C268.999 68.1 268.199 67.3 267.199 67.3C266.199 67.3 265.399 68.1 265.399 69.1Z" fill="#29B8CE"/>
<path d="M285.399 69.1C285.399 70.1 286.199 70.9 287.199 70.9C288.199 70.9 288.999 70.1 288.999 69.1C288.999 68.1 288.199 67.3 287.199 67.3C286.199 67.3 285.399 68.1 285.399 69.1Z" fill="#29B8CE"/>
<path d="M305.3 69.1C305.3 70.1 306.1 70.9 307.1 70.9C308.1 70.9 308.9 70.1 308.9 69.1C308.9 68.1 308.1 67.3 307.1 67.3C306.1 67.3 305.3 68.1 305.3 69.1Z" fill="#29B8CE"/>
<path d="M65.7998 86.1C65.7998 87.1 66.5998 87.9 67.5998 87.9C68.5998 87.9 69.3998 87.1 69.3998 86.1C69.3998 85.1 68.5998 84.3 67.5998 84.3C66.5998 84.3 65.7998 85.1 65.7998 86.1Z" fill="#29B8CE"/>
<path d="M85.7998 86.1C85.7998 87.1 86.5998 87.9 87.5998 87.9C88.5998 87.9 89.3998 87.1 89.3998 86.1C89.3998 85.1 88.5998 84.3 87.5998 84.3C86.5998 84.3 85.7998 85.1 85.7998 86.1Z" fill="#29B8CE"/>
<path d="M105.7 86.1C105.7 87.1 106.5 87.9 107.5 87.9C108.5 87.9 109.3 87.1 109.3 86.1C109.3 85.1 108.5 84.3 107.5 84.3C106.6 84.3 105.7 85.1 105.7 86.1Z" fill="#29B8CE"/>
<path d="M127.5 87.9C128.494 87.9 129.3 87.0942 129.3 86.1C129.3 85.1059 128.494 84.3 127.5 84.3C126.506 84.3 125.7 85.1059 125.7 86.1C125.7 87.0942 126.506 87.9 127.5 87.9Z" fill="#29B8CE"/>
<path d="M147.5 87.9C148.494 87.9 149.3 87.0942 149.3 86.1C149.3 85.1059 148.494 84.3 147.5 84.3C146.506 84.3 145.7 85.1059 145.7 86.1C145.7 87.0942 146.506 87.9 147.5 87.9Z" fill="#29B8CE"/>
<path d="M167.4 87.9C168.394 87.9 169.2 87.0942 169.2 86.1C169.2 85.1059 168.394 84.3 167.4 84.3C166.405 84.3 165.6 85.1059 165.6 86.1C165.6 87.0942 166.405 87.9 167.4 87.9Z" fill="#29B8CE"/>
<path d="M185.6 86.1C185.6 87.1 186.4 87.9 187.4 87.9C188.4 87.9 189.2 87.1 189.2 86.1C189.2 85.1 188.4 84.3 187.4 84.3C186.4 84.3 185.6 85.1 185.6 86.1Z" fill="#29B8CE"/>
<path d="M205.5 86.1C205.5 87.1 206.3 87.9 207.3 87.9C208.3 87.9 209.1 87.1 209.1 86.1C209.1 85.1 208.3 84.3 207.3 84.3C206.3 84.3 205.5 85.1 205.5 86.1Z" fill="#29B8CE"/>
<path d="M225.5 86.1C225.5 87.1 226.3 87.9 227.3 87.9C228.3 87.9 229.1 87.1 229.1 86.1C229.1 85.1 228.3 84.3 227.3 84.3C226.3 84.3 225.5 85.1 225.5 86.1Z" fill="#29B8CE"/>
<path d="M245.5 86.1C245.5 87.1 246.3 87.9 247.3 87.9C248.3 87.9 249.1 87.1 249.1 86.1C249.1 85.1 248.3 84.3 247.3 84.3C246.3 84.3 245.5 85.1 245.5 86.1Z" fill="#29B8CE"/>
<path d="M265.399 86.1C265.399 87.1 266.199 87.9 267.199 87.9C268.199 87.9 268.999 87.1 268.999 86.1C268.999 85.1 268.199 84.3 267.199 84.3C266.199 84.3 265.399 85.1 265.399 86.1Z" fill="#29B8CE"/>
<path d="M285.399 86.1C285.399 87.1 286.199 87.9 287.199 87.9C288.199 87.9 288.999 87.1 288.999 86.1C288.999 85.1 288.199 84.3 287.199 84.3C286.199 84.3 285.399 85.1 285.399 86.1Z" fill="#29B8CE"/>
<path d="M305.3 86.1C305.3 87.1 306.1 87.9 307.1 87.9C308.1 87.9 308.9 87.1 308.9 86.1C308.9 85.1 308.1 84.3 307.1 84.3C306.1 84.3 305.3 85.1 305.3 86.1Z" fill="#29B8CE"/>
<path d="M65.7998 103.1C65.7998 104.1 66.5998 104.9 67.5998 104.9C68.5998 104.9 69.3998 104.1 69.3998 103.1C69.3998 102.1 68.5998 101.3 67.5998 101.3C66.5998 101.3 65.7998 102.1 65.7998 103.1Z" fill="#29B8CE"/>
<path d="M85.7998 103.1C85.7998 104.1 86.5998 104.9 87.5998 104.9C88.5998 104.9 89.3998 104.1 89.3998 103.1C89.3998 102.1 88.5998 101.3 87.5998 101.3C86.5998 101.3 85.7998 102.1 85.7998 103.1Z" fill="#29B8CE"/>
<path d="M105.7 103.1C105.7 104.1 106.5 104.9 107.5 104.9C108.5 104.9 109.3 104.1 109.3 103.1C109.3 102.1 108.5 101.3 107.5 101.3C106.6 101.3 105.7 102.1 105.7 103.1Z" fill="#29B8CE"/>
<path d="M125.7 103.1C125.7 104.1 126.5 104.9 127.5 104.9C128.5 104.9 129.3 104.1 129.3 103.1C129.3 102.1 128.5 101.3 127.5 101.3C126.5 101.3 125.7 102.1 125.7 103.1Z" fill="#29B8CE"/>
<path d="M145.7 103.1C145.7 104.1 146.5 104.9 147.5 104.9C148.5 104.9 149.3 104.1 149.3 103.1C149.3 102.1 148.5 101.3 147.5 101.3C146.5 101.3 145.7 102.1 145.7 103.1Z" fill="#29B8CE"/>
<path d="M165.6 103.1C165.6 104.1 166.4 104.9 167.4 104.9C168.4 104.9 169.2 104.1 169.2 103.1C169.2 102.1 168.4 101.3 167.4 101.3C166.4 101.3 165.6 102.1 165.6 103.1Z" fill="#29B8CE"/>
<path d="M185.6 103.1C185.6 104.1 186.4 104.9 187.4 104.9C188.4 104.9 189.2 104.1 189.2 103.1C189.2 102.1 188.4 101.3 187.4 101.3C186.4 101.3 185.6 102.1 185.6 103.1Z" fill="#29B8CE"/>
<path d="M205.5 103.1C205.5 104.1 206.3 104.9 207.3 104.9C208.3 104.9 209.1 104.1 209.1 103.1C209.1 102.1 208.3 101.3 207.3 101.3C206.3 101.3 205.5 102.1 205.5 103.1Z" fill="#29B8CE"/>
<path d="M225.5 103.1C225.5 104.1 226.3 104.9 227.3 104.9C228.3 104.9 229.1 104.1 229.1 103.1C229.1 102.1 228.3 101.3 227.3 101.3C226.3 101.3 225.5 102.1 225.5 103.1Z" fill="#29B8CE"/>
<path d="M245.5 103.1C245.5 104.1 246.3 104.9 247.3 104.9C248.3 104.9 249.1 104.1 249.1 103.1C249.1 102.1 248.3 101.3 247.3 101.3C246.3 101.3 245.5 102.1 245.5 103.1Z" fill="#29B8CE"/>
<path d="M265.399 103.1C265.399 104.1 266.199 104.9 267.199 104.9C268.199 104.9 268.999 104.1 268.999 103.1C268.999 102.1 268.199 101.3 267.199 101.3C266.199 101.3 265.399 102.1 265.399 103.1Z" fill="#29B8CE"/>
<path d="M285.399 103.1C285.399 104.1 286.199 104.9 287.199 104.9C288.199 104.9 288.999 104.1 288.999 103.1C288.999 102.1 288.199 101.3 287.199 101.3C286.199 101.3 285.399 102.1 285.399 103.1Z" fill="#29B8CE"/>
<path d="M305.3 103.1C305.3 104.1 306.1 104.9 307.1 104.9C308.1 104.9 308.9 104.1 308.9 103.1C308.9 102.1 308.1 101.3 307.1 101.3C306.1 101.3 305.3 102.1 305.3 103.1Z" fill="#29B8CE"/>
</g>
<defs>
<clipPath id="clip0_32_1865">
<rect width="375.7" height="104.9" fill="white"/>
</clipPath>
</defs>
</svg>
